<svg width="40" height="40" viewBox="0 0 40 40" fill="none" xmlns="http://www.w3.org/2000/svg">
<g clip-path="url(#clip0_8_528)">
<path d="M38.7489 18.4784H22.916C22.226 18.4784 21.666 17.9266 21.666 17.2466C21.666 16.5666 22.226 16.0148 22.916 16.0148H38.7489C39.4389 16.0148 39.9989 16.5666 39.9989 17.2466C39.9989 17.9266 39.4389 18.4784 38.7489 18.4784Z" fill="#FF0742"/>
<path d="M32.4989 24.6375C32.1788 24.6375 31.859 24.5175 31.6155 24.2763C31.1272 23.7948 31.1272 23.0147 31.6155 22.5335L36.9821 17.2451L31.6155 11.9564C31.1272 11.4752 31.1272 10.6951 31.6155 10.2139C32.104 9.73241 32.8956 9.73241 33.3839 10.2139L39.6337 16.373C40.122 16.8541 40.122 17.6342 39.6337 18.1154L33.3839 24.2745C33.1389 24.5175 32.819 24.6375 32.4989 24.6375Z" fill="#FF0742"/>
<path d="M13.333 39.4192C12.9763 39.4192 12.6378 39.3699 12.2997 39.2664L2.26983 35.9734C0.905123 35.5036 0 34.2505 0 32.8496V3.28615C0 1.47452 1.49501 0.0012207 3.33333 0.0012207C3.68976 0.0012207 4.02819 0.0505413 4.36662 0.153994L14.3962 3.44705C15.7612 3.9168 16.666 5.16996 16.666 6.57079V36.1343C16.666 37.9459 15.1713 39.4192 13.333 39.4192ZM3.33333 2.46484C2.87497 2.46484 2.49992 2.83445 2.49992 3.28615V32.8496C2.49992 33.1994 2.73826 33.5245 3.07821 33.6412L13.0611 36.9195C13.1328 36.9424 13.2262 36.9556 13.333 36.9556C13.7914 36.9556 14.1661 36.586 14.1661 36.1343V6.57079C14.1661 6.22103 13.9278 5.89594 13.5878 5.77925L3.60493 2.50093C3.53321 2.47808 3.43983 2.46484 3.33333 2.46484Z" fill="#FF0742"/>
<path d="M25.4157 13.1407C24.7257 13.1407 24.1657 12.5888 24.1657 11.9088V4.51797C24.1657 3.3863 23.231 2.46485 22.0827 2.46485H3.33324C2.64326 2.46485 2.08328 1.913 2.08328 1.23303C2.08328 0.55307 2.64326 0.0012207 3.33324 0.0012207H22.0827C24.611 0.0012207 26.6656 2.02637 26.6656 4.51797V11.9088C26.6656 12.5888 26.1057 13.1407 25.4157 13.1407Z" fill="#FF0742"/>
<path d="M22.0827 34.492H15.416C14.7261 34.492 14.1661 33.9401 14.1661 33.2601C14.1661 32.5802 14.7261 32.0283 15.416 32.0283H22.0827C23.231 32.0283 24.1658 31.1069 24.1658 29.9752V22.5843C24.1658 21.9044 24.7257 21.3525 25.4157 21.3525C26.1057 21.3525 26.6657 21.9044 26.6657 22.5843V29.9752C26.6657 32.4668 24.611 34.492 22.0827 34.492Z" fill="#FF0742"/>
</g>
<defs>
<clipPath id="clip0_8_528">
<rect width="40" height="39.4192" fill="white"/>
</clipPath>
</defs>
</svg>
