<svg width="42" height="36" viewBox="0 0 42 36" fill="none" xmlns="http://www.w3.org/2000/svg">
<path d="M25 30.4543C32.542 30.4543 36.314 30.4543 38.656 28.2968C41 26.1411 41 22.6692 41 15.7272C41 8.78515 41 5.31322 38.656 3.15753C36.314 1 32.542 1 25 1H17C9.458 1 5.686 1 3.344 3.15753C1 5.31322 1 8.78515 1 15.7272C1 22.6692 1 26.1411 3.344 28.2968C4.65 29.5007 6.4 30.0328 9 30.2666" stroke="black" stroke-width="2" stroke-linecap="round" stroke-linejoin="round"/>
<path d="M25 30.4544C22.528 30.4544 19.804 31.3748 17.318 32.5622C13.322 34.4712 11.324 35.4267 10.34 34.8173C9.35599 34.2098 9.54199 32.3229 9.91599 28.5509L9.99999 27.6931M21 15.7272V15.7456V15.7272ZM13 15.7272V15.7456V15.7272ZM29 15.7272V15.7456V15.7272Z" stroke="black" stroke-width="2" stroke-linecap="round"/>
</svg>
